<svg xmlns="http://www.w3.org/2000/svg" xmlns:xlink="http://www.w3.org/1999/xlink" width="3935" zoomAndPan="magnify" viewBox="0 0 2951.25 2951.24999" height="3935" preserveAspectRatio="xMidYMid meet" version="1.0"><defs><g/><clipPath id="217be53eb1"><path d="M 0 0 L 2950.5 0 L 2950.5 2950.5 L 0 2950.5 Z M 0 0 " clip-rule="nonzero"/></clipPath><clipPath id="282e31333c"><path d="M 1475.085938 0 L 2950.175781 1475.089844 L 1475.085938 2950.179688 L -0.00390625 1475.089844 Z M 1475.085938 0 " clip-rule="nonzero"/></clipPath><clipPath id="f56bb6b6f1"><path d="M 0 0 L 2950.289062 0 L 2950.289062 2950.289062 L 0 2950.289062 Z M 0 0 " clip-rule="nonzero"/></clipPath><clipPath id="bc4de9862c"><path d="M 1475.085938 0 L 2950.175781 1475.089844 L 1475.085938 2950.179688 L -0.00390625 1475.089844 Z M 1475.085938 0 " clip-rule="nonzero"/></clipPath><clipPath id="b2957c722b"><rect x="0" width="2951" y="0" height="2951"/></clipPath><clipPath id="cc7c3b04f1"><path d="M 565.449219 565.449219 L 2384.488281 565.449219 L 2384.488281 2384.488281 L 565.449219 2384.488281 Z M 565.449219 565.449219 " clip-rule="nonzero"/></clipPath><clipPath id="36012f7789"><path d="M 1475.085938 565.449219 C 972.707031 565.449219 565.449219 972.707031 565.449219 1475.085938 C 565.449219 1977.464844 972.707031 2384.722656 1475.085938 2384.722656 C 1977.464844 2384.722656 2384.722656 1977.464844 2384.722656 1475.085938 C 2384.722656 972.707031 1977.464844 565.449219 1475.085938 565.449219 Z M 1475.085938 565.449219 " clip-rule="nonzero"/></clipPath><clipPath id="c722417891"><rect x="0" width="1417" y="0" height="1119"/></clipPath><clipPath id="5f2dd37883"><rect x="0" width="1239" y="0" height="482"/></clipPath></defs><g clip-path="url(#217be53eb1)"><g clip-path="url(#282e31333c)"><g transform="matrix(1, 0, 0, 1, 0, 0.000000000000145153)"><g clip-path="url(#b2957c722b)"><g clip-path="url(#f56bb6b6f1)"><g clip-path="url(#bc4de9862c)"><path fill="#0582b2" d="M 1475.085938 0 L 2950.175781 1475.089844 L 1475.085938 2950.179688 L -0.00390625 1475.089844 Z M 1475.085938 0 " fill-opacity="1" fill-rule="nonzero"/></g></g></g></g></g></g><g clip-path="url(#cc7c3b04f1)"><g clip-path="url(#36012f7789)"><path stroke-linecap="butt" transform="matrix(0.749809, 0, 0, 0.749809, 565.44885, 565.448945)" fill="none" stroke-linejoin="miter" d="M 1213.157725 0.000364827 C 543.148928 0.000364827 0.000491492 543.148801 0.000491492 1213.157599 C 0.000491492 1883.166396 543.148928 2426.314832 1213.157725 2426.314832 C 1883.161313 2426.314832 2426.314959 1883.166396 2426.314959 1213.157599 C 2426.314959 543.148801 1883.161313 0.000364827 1213.157725 0.000364827 Z M 1213.157725 0.000364827 " stroke="#ffffff" stroke-width="200" stroke-opacity="1" stroke-miterlimit="4"/></g></g><g transform="matrix(1, 0, 0, 1, 775, 817)"><g clip-path="url(#c722417891)"><g fill="#ffffff" fill-opacity="1"><g transform="translate(0.815332, 877.905106)"><g><path d="M 354.703125 -12.40625 C 354.703125 -8.675781 353.363281 -5.742188 350.6875 -3.609375 C 348.019531 -1.472656 343.816406 0.0625 338.078125 1 C 332.347656 1.9375 323.875 2.40625 312.65625 2.40625 C 300.644531 2.40625 291.90625 1.9375 286.4375 1 C 280.96875 0.0625 277.097656 -1.472656 274.828125 -3.609375 C 272.554688 -5.742188 271.421875 -8.675781 271.421875 -12.40625 L 271.421875 -40.828125 C 256.742188 -25.085938 240 -12.8125 221.1875 -4 C 202.375 4.800781 181.488281 9.203125 158.53125 9.203125 C 139.582031 9.203125 122.164062 6.734375 106.28125 1.796875 C 90.40625 -3.140625 76.660156 -10.476562 65.046875 -20.21875 C 53.441406 -29.957031 44.4375 -42.03125 38.03125 -56.4375 C 31.625 -70.851562 28.421875 -87.671875 28.421875 -106.890625 C 28.421875 -127.703125 32.488281 -145.78125 40.625 -161.125 C 48.769531 -176.476562 60.914062 -189.160156 77.0625 -199.171875 C 93.207031 -209.179688 113.289062 -216.585938 137.3125 -221.390625 C 161.332031 -226.191406 189.222656 -228.59375 220.984375 -228.59375 L 255.8125 -228.59375 L 255.8125 -250.203125 C 255.8125 -261.421875 254.675781 -271.234375 252.40625 -279.640625 C 250.144531 -288.046875 246.410156 -295.050781 241.203125 -300.65625 C 235.992188 -306.257812 229.050781 -310.394531 220.375 -313.0625 C 211.707031 -315.726562 200.96875 -317.0625 188.15625 -317.0625 C 171.34375 -317.0625 156.328125 -315.191406 143.109375 -311.453125 C 129.898438 -307.722656 118.222656 -303.585938 108.078125 -299.046875 C 97.941406 -294.515625 89.472656 -290.378906 82.671875 -286.640625 C 75.867188 -282.898438 70.332031 -281.03125 66.0625 -281.03125 C 63.125 -281.03125 60.519531 -281.960938 58.25 -283.828125 C 55.976562 -285.703125 54.109375 -288.375 52.640625 -291.84375 C 51.171875 -295.3125 50.035156 -299.582031 49.234375 -304.65625 C 48.441406 -309.726562 48.046875 -315.332031 48.046875 -321.46875 C 48.046875 -329.738281 48.710938 -336.273438 50.046875 -341.078125 C 51.378906 -345.890625 53.910156 -350.226562 57.640625 -354.09375 C 61.378906 -357.96875 67.921875 -362.238281 77.265625 -366.90625 C 86.609375 -371.582031 97.550781 -375.921875 110.09375 -379.921875 C 122.632812 -383.921875 136.3125 -387.1875 151.125 -389.71875 C 165.9375 -392.257812 181.21875 -393.53125 196.96875 -393.53125 C 224.988281 -393.53125 248.941406 -390.796875 268.828125 -385.328125 C 288.710938 -379.859375 305.054688 -371.453125 317.859375 -360.109375 C 330.671875 -348.765625 340.015625 -334.148438 345.890625 -316.265625 C 351.765625 -298.378906 354.703125 -277.160156 354.703125 -252.609375 Z M 255.8125 -165.34375 L 217.390625 -165.34375 C 201.109375 -165.34375 187.226562 -164.140625 175.75 -161.734375 C 164.269531 -159.335938 154.925781 -155.734375 147.71875 -150.921875 C 140.519531 -146.117188 135.25 -140.3125 131.90625 -133.5 C 128.570312 -126.695312 126.90625 -118.894531 126.90625 -110.09375 C 126.90625 -95.144531 131.640625 -83.398438 141.109375 -74.859375 C 150.585938 -66.316406 163.734375 -62.046875 180.546875 -62.046875 C 194.691406 -62.046875 207.703125 -65.648438 219.578125 -72.859375 C 231.460938 -80.066406 243.539062 -90.609375 255.8125 -104.484375 Z M 255.8125 -165.34375 "/></g></g><g transform="translate(405.558208, 877.905106)"><g><path d="M 320.671875 -70.453125 C 320.671875 -63.515625 320.46875 -57.707031 320.0625 -53.03125 C 319.664062 -48.363281 319.132812 -44.429688 318.46875 -41.234375 C 317.800781 -38.035156 317 -35.429688 316.0625 -33.421875 C 315.132812 -31.421875 313.066406 -28.882812 309.859375 -25.8125 C 306.660156 -22.75 301.191406 -19.015625 293.453125 -14.609375 C 285.710938 -10.203125 276.90625 -6.265625 267.03125 -2.796875 C 257.15625 0.671875 246.410156 3.472656 234.796875 5.609375 C 223.191406 7.742188 211.25 8.8125 198.96875 8.8125 C 171.476562 8.8125 147.125 4.539062 125.90625 -4 C 104.6875 -12.539062 86.867188 -25.148438 72.453125 -41.828125 C 58.046875 -58.515625 47.171875 -78.867188 39.828125 -102.890625 C 32.492188 -126.910156 28.828125 -154.398438 28.828125 -185.359375 C 28.828125 -221.117188 33.296875 -252.007812 42.234375 -278.03125 C 51.171875 -304.050781 63.644531 -325.601562 79.65625 -342.6875 C 95.675781 -359.769531 114.628906 -372.445312 136.515625 -380.71875 C 158.398438 -388.988281 182.421875 -393.125 208.578125 -393.125 C 219.253906 -393.125 229.726562 -392.191406 240 -390.328125 C 250.28125 -388.460938 259.890625 -385.925781 268.828125 -382.71875 C 277.765625 -379.519531 285.769531 -375.914062 292.84375 -371.90625 C 299.914062 -367.90625 304.921875 -364.4375 307.859375 -361.5 C 310.796875 -358.5625 312.863281 -356.09375 314.0625 -354.09375 C 315.257812 -352.09375 316.191406 -349.488281 316.859375 -346.28125 C 317.535156 -343.082031 318.070312 -339.144531 318.46875 -334.46875 C 318.863281 -329.800781 319.0625 -324.132812 319.0625 -317.46875 C 319.0625 -301.988281 317.726562 -291.113281 315.0625 -284.84375 C 312.394531 -278.570312 308.925781 -275.4375 304.65625 -275.4375 C 300.113281 -275.4375 295.304688 -277.300781 290.234375 -281.03125 C 285.171875 -284.769531 279.171875 -288.90625 272.234375 -293.4375 C 265.296875 -297.976562 257.019531 -302.117188 247.40625 -305.859375 C 237.800781 -309.597656 226.328125 -311.46875 212.984375 -311.46875 C 186.828125 -311.46875 166.804688 -301.390625 152.921875 -281.234375 C 139.046875 -261.085938 132.109375 -231.53125 132.109375 -192.5625 C 132.109375 -173.34375 133.84375 -156.394531 137.3125 -141.71875 C 140.78125 -127.039062 145.914062 -114.765625 152.71875 -104.890625 C 159.53125 -95.015625 168.070312 -87.609375 178.34375 -82.671875 C 188.625 -77.734375 200.570312 -75.265625 214.1875 -75.265625 C 228.0625 -75.265625 240 -77.332031 250 -81.46875 C 260.007812 -85.601562 268.75 -90.207031 276.21875 -95.28125 C 283.695312 -100.351562 289.972656 -104.957031 295.046875 -109.09375 C 300.117188 -113.226562 304.390625 -115.296875 307.859375 -115.296875 C 310.265625 -115.296875 312.265625 -114.628906 313.859375 -113.296875 C 315.460938 -111.960938 316.726562 -109.492188 317.65625 -105.890625 C 318.59375 -102.285156 319.328125 -97.679688 319.859375 -92.078125 C 320.398438 -86.472656 320.671875 -79.265625 320.671875 -70.453125 Z M 320.671875 -70.453125 "/></g></g><g transform="translate(748.648857, 877.905106)"><g><path d="M 618.515625 -13.609375 C 618.515625 -10.941406 617.710938 -8.609375 616.109375 -6.609375 C 614.515625 -4.609375 611.847656 -2.9375 608.109375 -1.59375 C 604.367188 -0.257812 599.296875 0.738281 592.890625 1.40625 C 586.492188 2.070312 578.359375 2.40625 568.484375 2.40625 C 558.335938 2.40625 550.0625 2.070312 543.65625 1.40625 C 537.25 0.738281 532.109375 -0.257812 528.234375 -1.59375 C 524.367188 -2.9375 521.703125 -4.609375 520.234375 -6.609375 C 518.765625 -8.609375 518.03125 -10.941406 518.03125 -13.609375 L 518.03125 -225.390625 C 518.03125 -237.398438 516.894531 -248.34375 514.625 -258.21875 C 512.363281 -268.09375 508.894531 -276.566406 504.21875 -283.640625 C 499.550781 -290.710938 493.679688 -296.179688 486.609375 -300.046875 C 479.535156 -303.921875 471.0625 -305.859375 461.1875 -305.859375 C 449.175781 -305.859375 437.03125 -301.1875 424.75 -291.84375 C 412.476562 -282.5 399.132812 -268.890625 384.71875 -251.015625 L 384.71875 -13.609375 C 384.71875 -10.941406 383.914062 -8.609375 382.3125 -6.609375 C 380.71875 -4.609375 377.984375 -2.9375 374.109375 -1.59375 C 370.242188 -0.257812 365.109375 0.738281 358.703125 1.40625 C 352.296875 2.070312 344.289062 2.40625 334.6875 2.40625 C 324.8125 2.40625 316.671875 2.070312 310.265625 1.40625 C 303.859375 0.738281 298.71875 -0.257812 294.84375 -1.59375 C 290.976562 -2.9375 288.242188 -4.609375 286.640625 -6.609375 C 285.035156 -8.609375 284.234375 -10.941406 284.234375 -13.609375 L 284.234375 -225.390625 C 284.234375 -237.398438 283.097656 -248.34375 280.828125 -258.21875 C 278.566406 -268.09375 275.164062 -276.566406 270.625 -283.640625 C 266.09375 -290.710938 260.222656 -296.179688 253.015625 -300.046875 C 245.804688 -303.921875 237.398438 -305.859375 227.796875 -305.859375 C 215.515625 -305.859375 203.234375 -301.1875 190.953125 -291.84375 C 178.679688 -282.5 165.472656 -268.890625 151.328125 -251.015625 L 151.328125 -13.609375 C 151.328125 -10.941406 150.523438 -8.609375 148.921875 -6.609375 C 147.316406 -4.609375 144.578125 -2.9375 140.703125 -1.59375 C 136.835938 -0.257812 131.703125 0.738281 125.296875 1.40625 C 118.898438 2.070312 110.765625 2.40625 100.890625 2.40625 C 91.015625 2.40625 82.875 2.070312 76.46875 1.40625 C 70.0625 0.738281 64.921875 -0.257812 61.046875 -1.59375 C 57.179688 -2.9375 54.445312 -4.609375 52.84375 -6.609375 C 51.238281 -8.609375 50.4375 -10.941406 50.4375 -13.609375 L 50.4375 -370.71875 C 50.4375 -373.382812 51.101562 -375.71875 52.4375 -377.71875 C 53.78125 -379.71875 56.1875 -381.382812 59.65625 -382.71875 C 63.125 -384.050781 67.59375 -385.050781 73.0625 -385.71875 C 78.53125 -386.382812 85.398438 -386.71875 93.671875 -386.71875 C 102.210938 -386.71875 109.285156 -386.382812 114.890625 -385.71875 C 120.492188 -385.050781 124.832031 -384.050781 127.90625 -382.71875 C 130.976562 -381.382812 133.179688 -379.71875 134.515625 -377.71875 C 135.847656 -375.71875 136.515625 -373.382812 136.515625 -370.71875 L 136.515625 -329.484375 C 156.265625 -350.828125 175.945312 -366.835938 195.5625 -377.515625 C 215.175781 -388.191406 235.660156 -393.53125 257.015625 -393.53125 C 271.691406 -393.53125 284.898438 -391.992188 296.640625 -388.921875 C 308.390625 -385.859375 318.867188 -381.457031 328.078125 -375.71875 C 337.285156 -369.976562 345.222656 -363.101562 351.890625 -355.09375 C 358.566406 -347.09375 364.171875 -338.15625 368.703125 -328.28125 C 379.378906 -339.75 389.851562 -349.617188 400.125 -357.890625 C 410.40625 -366.171875 420.550781 -372.910156 430.5625 -378.109375 C 440.570312 -383.316406 450.578125 -387.1875 460.578125 -389.71875 C 470.585938 -392.257812 480.800781 -393.53125 491.21875 -393.53125 C 514.96875 -393.53125 534.984375 -389.523438 551.265625 -381.515625 C 567.546875 -373.515625 580.6875 -362.640625 590.6875 -348.890625 C 600.695312 -335.148438 607.835938 -319.070312 612.109375 -300.65625 C 616.378906 -282.238281 618.515625 -262.753906 618.515625 -242.203125 Z M 618.515625 -13.609375 "/></g></g></g></g></g><g transform="matrix(1, 0, 0, 1, 856, 820)"><g clip-path="url(#5f2dd37883)"><g fill="#ffffff" fill-opacity="1"><g transform="translate(0.183069, 377.914611)"><g><path d="M 59.3125 -4.484375 C 59.3125 -3.566406 59.082031 -2.757812 58.625 -2.0625 C 58.164062 -1.375 57.359375 -0.828125 56.203125 -0.421875 C 55.054688 -0.0234375 53.535156 0.3125 51.640625 0.59375 C 49.742188 0.882812 47.359375 1.03125 44.484375 1.03125 C 41.722656 1.03125 39.363281 0.882812 37.40625 0.59375 C 35.457031 0.3125 33.90625 -0.0234375 32.75 -0.421875 C 31.601562 -0.828125 30.800781 -1.375 30.34375 -2.0625 C 29.882812 -2.757812 29.65625 -3.566406 29.65625 -4.484375 L 29.65625 -218.640625 C 29.65625 -219.554688 29.910156 -220.359375 30.421875 -221.046875 C 30.941406 -221.734375 31.804688 -222.28125 33.015625 -222.6875 C 34.222656 -223.09375 35.773438 -223.4375 37.671875 -223.71875 C 39.566406 -224.007812 41.835938 -224.15625 44.484375 -224.15625 C 47.359375 -224.15625 49.742188 -224.007812 51.640625 -223.71875 C 53.535156 -223.4375 55.054688 -223.09375 56.203125 -222.6875 C 57.359375 -222.28125 58.164062 -221.734375 58.625 -221.046875 C 59.082031 -220.359375 59.3125 -219.554688 59.3125 -218.640625 Z M 59.3125 -4.484375 "/></g></g></g><g fill="#ffffff" fill-opacity="1"><g transform="translate(89.152049, 377.914611)"><g><path d="M 197.25 -192.765625 C 197.25 -190.585938 197.132812 -188.664062 196.90625 -187 C 196.675781 -185.332031 196.332031 -183.953125 195.875 -182.859375 C 195.414062 -181.765625 194.835938 -180.988281 194.140625 -180.53125 C 193.453125 -180.070312 192.707031 -179.84375 191.90625 -179.84375 C 190.53125 -179.84375 188.234375 -180.929688 185.015625 -183.109375 C 181.796875 -185.296875 177.484375 -187.710938 172.078125 -190.359375 C 166.671875 -193.003906 160.203125 -195.414062 152.671875 -197.59375 C 145.148438 -199.78125 136.21875 -200.875 125.875 -200.875 C 113.570312 -200.875 102.535156 -198.628906 92.765625 -194.140625 C 82.992188 -189.660156 74.71875 -183.453125 67.9375 -175.515625 C 61.15625 -167.585938 55.953125 -158.164062 52.328125 -147.25 C 48.710938 -136.332031 46.90625 -124.492188 46.90625 -111.734375 C 46.90625 -97.472656 48.882812 -84.828125 52.84375 -73.796875 C 56.8125 -62.765625 62.300781 -53.453125 69.3125 -45.859375 C 76.320312 -38.273438 84.679688 -32.53125 94.390625 -28.625 C 104.109375 -24.71875 114.773438 -22.765625 126.390625 -22.765625 C 133.285156 -22.765625 140.265625 -23.597656 147.328125 -25.265625 C 154.398438 -26.929688 160.984375 -29.429688 167.078125 -32.765625 L 167.078125 -97.765625 L 115.359375 -97.765625 C 113.398438 -97.765625 111.929688 -98.738281 110.953125 -100.6875 C 109.972656 -102.644531 109.484375 -105.691406 109.484375 -109.828125 C 109.484375 -112.015625 109.597656 -113.882812 109.828125 -115.4375 C 110.054688 -116.988281 110.429688 -118.253906 110.953125 -119.234375 C 111.472656 -120.210938 112.078125 -120.929688 112.765625 -121.390625 C 113.453125 -121.847656 114.316406 -122.078125 115.359375 -122.078125 L 186.21875 -122.078125 C 187.476562 -122.078125 188.738281 -121.847656 190 -121.390625 C 191.269531 -120.929688 192.421875 -120.238281 193.453125 -119.3125 C 194.492188 -118.394531 195.300781 -117.128906 195.875 -115.515625 C 196.445312 -113.910156 196.734375 -112.070312 196.734375 -110 L 196.734375 -25 C 196.734375 -22.007812 196.210938 -19.421875 195.171875 -17.234375 C 194.140625 -15.054688 191.957031 -13.132812 188.625 -11.46875 C 185.289062 -9.800781 180.976562 -7.988281 175.6875 -6.03125 C 170.40625 -4.082031 164.945312 -2.414062 159.3125 -1.03125 C 153.6875 0.34375 148 1.375 142.25 2.0625 C 136.5 2.757812 130.8125 3.109375 125.1875 3.109375 C 107.9375 3.109375 92.53125 0.4375 78.96875 -4.90625 C 65.40625 -10.257812 53.9375 -17.878906 44.5625 -27.765625 C 35.195312 -37.648438 28.039062 -49.488281 23.09375 -63.28125 C 18.15625 -77.070312 15.6875 -92.472656 15.6875 -109.484375 C 15.6875 -127.191406 18.359375 -143.226562 23.703125 -157.59375 C 29.046875 -171.96875 36.570312 -184.210938 46.28125 -194.328125 C 56 -204.441406 67.671875 -212.285156 81.296875 -217.859375 C 94.921875 -223.429688 110.007812 -226.21875 126.5625 -226.21875 C 135.0625 -226.21875 143.046875 -225.46875 150.515625 -223.96875 C 157.992188 -222.476562 164.632812 -220.726562 170.4375 -218.71875 C 176.25 -216.707031 181.132812 -214.523438 185.09375 -212.171875 C 189.0625 -209.816406 191.789062 -207.890625 193.28125 -206.390625 C 194.78125 -204.898438 195.816406 -203.175781 196.390625 -201.21875 C 196.960938 -199.257812 197.25 -196.441406 197.25 -192.765625 Z M 197.25 -192.765625 "/></g></g></g><g fill="#ffffff" fill-opacity="1"><g transform="translate(311.919358, 377.914611)"><g><path d="M 201.21875 -114.828125 C 201.21875 -95.523438 198.742188 -78.660156 193.796875 -64.234375 C 188.859375 -49.804688 181.644531 -37.847656 172.15625 -28.359375 C 162.675781 -18.878906 151.039062 -11.78125 137.25 -7.0625 C 123.457031 -2.351562 107.019531 0 87.9375 0 L 40.6875 0 C 38.039062 0 35.539062 -0.890625 33.1875 -2.671875 C 30.832031 -4.453125 29.65625 -7.582031 29.65625 -12.0625 L 29.65625 -211.046875 C 29.65625 -215.523438 30.832031 -218.65625 33.1875 -220.4375 C 35.539062 -222.21875 38.039062 -223.109375 40.6875 -223.109375 L 91.21875 -223.109375 C 110.53125 -223.109375 126.851562 -220.609375 140.1875 -215.609375 C 153.519531 -210.609375 164.695312 -203.425781 173.71875 -194.0625 C 182.738281 -184.695312 189.578125 -173.347656 194.234375 -160.015625 C 198.890625 -146.679688 201.21875 -131.617188 201.21875 -114.828125 Z M 170.015625 -113.625 C 170.015625 -125.695312 168.519531 -136.929688 165.53125 -147.328125 C 162.539062 -157.734375 157.851562 -166.726562 151.46875 -174.3125 C 145.09375 -181.90625 137.019531 -187.828125 127.25 -192.078125 C 117.476562 -196.328125 104.890625 -198.453125 89.484375 -198.453125 L 59.3125 -198.453125 L 59.3125 -24.828125 L 89.828125 -24.828125 C 104.085938 -24.828125 116.101562 -26.609375 125.875 -30.171875 C 135.644531 -33.734375 143.804688 -39.191406 150.359375 -46.546875 C 156.910156 -53.910156 161.820312 -63.140625 165.09375 -74.234375 C 168.375 -85.328125 170.015625 -98.457031 170.015625 -113.625 Z M 170.015625 -113.625 "/></g></g></g><g fill="#ffffff" fill-opacity="1"><g transform="translate(525.20354, 377.914611)"><g><path d="M 169.5 -210.359375 C 169.5 -208.171875 169.378906 -206.269531 169.140625 -204.65625 C 168.910156 -203.050781 168.535156 -201.757812 168.015625 -200.78125 C 167.503906 -199.8125 166.875 -199.09375 166.125 -198.625 C 165.382812 -198.164062 164.550781 -197.9375 163.625 -197.9375 L 100.875 -197.9375 L 100.875 -4.484375 C 100.875 -3.566406 100.640625 -2.757812 100.171875 -2.0625 C 99.710938 -1.375 98.910156 -0.828125 97.765625 -0.421875 C 96.617188 -0.0234375 95.09375 0.3125 93.1875 0.59375 C 91.289062 0.882812 88.910156 1.03125 86.046875 1.03125 C 83.285156 1.03125 80.925781 0.882812 78.96875 0.59375 C 77.019531 0.3125 75.46875 -0.0234375 74.3125 -0.421875 C 73.164062 -0.828125 72.363281 -1.375 71.90625 -2.0625 C 71.445312 -2.757812 71.21875 -3.566406 71.21875 -4.484375 L 71.21875 -197.9375 L 8.453125 -197.9375 C 7.523438 -197.9375 6.6875 -198.164062 5.9375 -198.625 C 5.195312 -199.09375 4.597656 -199.8125 4.140625 -200.78125 C 3.679688 -201.757812 3.304688 -203.050781 3.015625 -204.65625 C 2.734375 -206.269531 2.59375 -208.171875 2.59375 -210.359375 C 2.59375 -212.546875 2.734375 -214.472656 3.015625 -216.140625 C 3.304688 -217.804688 3.679688 -219.15625 4.140625 -220.1875 C 4.597656 -221.21875 5.195312 -221.960938 5.9375 -222.421875 C 6.6875 -222.878906 7.523438 -223.109375 8.453125 -223.109375 L 163.625 -223.109375 C 164.550781 -223.109375 165.382812 -222.878906 166.125 -222.421875 C 166.875 -221.960938 167.503906 -221.21875 168.015625 -220.1875 C 168.535156 -219.15625 168.910156 -217.804688 169.140625 -216.140625 C 169.378906 -214.472656 169.5 -212.546875 169.5 -210.359375 Z M 169.5 -210.359375 "/></g></g></g><g fill="#ffffff" fill-opacity="1"><g transform="translate(697.279181, 377.914611)"><g><path d="M 197.421875 -82.421875 C 197.421875 -68.859375 195.4375 -56.757812 191.46875 -46.125 C 187.507812 -35.488281 181.847656 -26.492188 174.484375 -19.140625 C 167.128906 -11.785156 158.164062 -6.207031 147.59375 -2.40625 C 137.019531 1.382812 125.007812 3.28125 111.5625 3.28125 C 99.257812 3.28125 88.050781 1.5 77.9375 -2.0625 C 67.820312 -5.632812 59.140625 -10.894531 51.890625 -17.84375 C 44.648438 -24.800781 39.078125 -33.507812 35.171875 -43.96875 C 31.265625 -54.425781 29.3125 -66.492188 29.3125 -80.171875 L 29.3125 -218.640625 C 29.3125 -219.554688 29.539062 -220.359375 30 -221.046875 C 30.457031 -221.734375 31.257812 -222.28125 32.40625 -222.6875 C 33.5625 -223.09375 35.054688 -223.4375 36.890625 -223.71875 C 38.734375 -224.007812 41.148438 -224.15625 44.140625 -224.15625 C 46.898438 -224.15625 49.253906 -224.007812 51.203125 -223.71875 C 53.160156 -223.4375 54.6875 -223.09375 55.78125 -222.6875 C 56.875 -222.28125 57.648438 -221.734375 58.109375 -221.046875 C 58.566406 -220.359375 58.796875 -219.554688 58.796875 -218.640625 L 58.796875 -83.796875 C 58.796875 -73.453125 60.0625 -64.425781 62.59375 -56.71875 C 65.125 -49.019531 68.769531 -42.613281 73.53125 -37.5 C 78.300781 -32.382812 84.050781 -28.535156 90.78125 -25.953125 C 97.507812 -23.367188 105.066406 -22.078125 113.453125 -22.078125 C 122.078125 -22.078125 129.75 -23.335938 136.46875 -25.859375 C 143.195312 -28.390625 148.890625 -32.179688 153.546875 -37.234375 C 158.203125 -42.296875 161.765625 -48.5625 164.234375 -56.03125 C 166.703125 -63.507812 167.9375 -72.25 167.9375 -82.25 L 167.9375 -218.640625 C 167.9375 -219.554688 168.164062 -220.359375 168.625 -221.046875 C 169.09375 -221.734375 169.898438 -222.28125 171.046875 -222.6875 C 172.191406 -223.09375 173.710938 -223.4375 175.609375 -223.71875 C 177.503906 -224.007812 179.890625 -224.15625 182.765625 -224.15625 C 185.523438 -224.15625 187.851562 -224.007812 189.75 -223.71875 C 191.644531 -223.4375 193.140625 -223.09375 194.234375 -222.6875 C 195.328125 -222.28125 196.128906 -221.734375 196.640625 -221.046875 C 197.160156 -220.359375 197.421875 -219.554688 197.421875 -218.640625 Z M 197.421875 -82.421875 "/></g></g></g><g fill="#ffffff" fill-opacity="1"><g transform="translate(923.839773, 377.914611)"><g><path d="M 243.296875 -6.546875 C 242.828125 -4.941406 242.132812 -3.648438 241.21875 -2.671875 C 240.300781 -1.691406 239.035156 -0.941406 237.421875 -0.421875 C 235.816406 0.0859375 233.832031 0.457031 231.46875 0.6875 C 229.113281 0.914062 226.210938 1.03125 222.765625 1.03125 C 219.203125 1.03125 216.1875 0.914062 213.71875 0.6875 C 211.25 0.457031 209.207031 0.0859375 207.59375 -0.421875 C 205.988281 -0.941406 204.78125 -1.691406 203.96875 -2.671875 C 203.164062 -3.648438 202.535156 -4.941406 202.078125 -6.546875 L 155.359375 -175.015625 L 155.015625 -175.015625 L 111.90625 -6.546875 C 111.5625 -4.941406 110.984375 -3.648438 110.171875 -2.671875 C 109.367188 -1.691406 108.21875 -0.941406 106.71875 -0.421875 C 105.226562 0.0859375 103.304688 0.457031 100.953125 0.6875 C 98.597656 0.914062 95.582031 1.03125 91.90625 1.03125 C 88.113281 1.03125 84.953125 0.914062 82.421875 0.6875 C 79.890625 0.457031 77.816406 0.0859375 76.203125 -0.421875 C 74.597656 -0.941406 73.363281 -1.691406 72.5 -2.671875 C 71.644531 -3.648438 71.039062 -4.941406 70.6875 -6.546875 L 11.71875 -212.59375 C 11.03125 -215.238281 10.65625 -217.304688 10.59375 -218.796875 C 10.539062 -220.296875 11.003906 -221.445312 11.984375 -222.25 C 12.960938 -223.0625 14.539062 -223.582031 16.71875 -223.8125 C 18.90625 -224.039062 21.835938 -224.15625 25.515625 -224.15625 C 29.078125 -224.15625 31.894531 -224.066406 33.96875 -223.890625 C 36.039062 -223.722656 37.617188 -223.40625 38.703125 -222.9375 C 39.796875 -222.476562 40.539062 -221.847656 40.9375 -221.046875 C 41.34375 -220.242188 41.664062 -219.207031 41.90625 -217.9375 L 92.078125 -31.03125 L 92.25 -31.03125 L 139.84375 -217.59375 C 140.1875 -218.863281 140.613281 -219.925781 141.125 -220.78125 C 141.644531 -221.644531 142.476562 -222.304688 143.625 -222.765625 C 144.78125 -223.234375 146.421875 -223.582031 148.546875 -223.8125 C 150.671875 -224.039062 153.457031 -224.15625 156.90625 -224.15625 C 160.125 -224.15625 162.679688 -224.039062 164.578125 -223.8125 C 166.472656 -223.582031 167.992188 -223.234375 169.140625 -222.765625 C 170.296875 -222.304688 171.128906 -221.644531 171.640625 -220.78125 C 172.160156 -219.925781 172.59375 -218.863281 172.9375 -217.59375 L 224.15625 -31.03125 L 224.5 -31.03125 L 273.640625 -217.765625 C 273.984375 -218.921875 274.328125 -219.925781 274.671875 -220.78125 C 275.015625 -221.644531 275.734375 -222.304688 276.828125 -222.765625 C 277.921875 -223.234375 279.472656 -223.582031 281.484375 -223.8125 C 283.492188 -224.039062 286.164062 -224.15625 289.5 -224.15625 C 292.945312 -224.15625 295.675781 -224.007812 297.6875 -223.71875 C 299.695312 -223.4375 301.160156 -222.890625 302.078125 -222.078125 C 303.003906 -221.273438 303.4375 -220.125 303.375 -218.625 C 303.320312 -217.132812 303.007812 -215.066406 302.4375 -212.421875 Z M 243.296875 -6.546875 "/></g></g></g></g></g><g fill="#ffffff" fill-opacity="1"><g transform="translate(913.303482, 2031.012156)"><g><path d="M 165.8125 -31.375 C 165.8125 -28.707031 165.734375 -26.4375 165.578125 -24.5625 C 165.421875 -22.695312 165.179688 -21.097656 164.859375 -19.765625 C 164.535156 -18.429688 164.109375 -17.285156 163.578125 -16.328125 C 163.046875 -15.367188 162.191406 -14.273438 161.015625 -13.046875 C 159.835938 -11.816406 157.566406 -10.238281 154.203125 -8.3125 C 150.847656 -6.394531 146.742188 -4.554688 141.890625 -2.796875 C 137.035156 -1.035156 131.484375 0.425781 125.234375 1.59375 C 118.992188 2.769531 112.25 3.359375 105 3.359375 C 90.800781 3.359375 77.992188 1.171875 66.578125 -3.203125 C 55.160156 -7.578125 45.453125 -14.113281 37.453125 -22.8125 C 29.453125 -31.507812 23.316406 -42.363281 19.046875 -55.375 C 14.773438 -68.394531 12.640625 -83.550781 12.640625 -100.84375 C 12.640625 -118.445312 14.988281 -134.078125 19.6875 -147.734375 C 24.382812 -161.390625 30.945312 -172.859375 39.375 -182.140625 C 47.800781 -191.421875 57.910156 -198.460938 69.703125 -203.265625 C 81.492188 -208.066406 94.484375 -210.46875 108.671875 -210.46875 C 114.441406 -210.46875 119.992188 -209.988281 125.328125 -209.03125 C 130.660156 -208.070312 135.59375 -206.816406 140.125 -205.265625 C 144.664062 -203.722656 148.75 -201.9375 152.375 -199.90625 C 156 -197.882812 158.53125 -196.148438 159.96875 -194.703125 C 161.414062 -193.265625 162.40625 -192.066406 162.9375 -191.109375 C 163.46875 -190.148438 163.894531 -188.921875 164.21875 -187.421875 C 164.539062 -185.929688 164.78125 -184.171875 164.9375 -182.140625 C 165.09375 -180.117188 165.171875 -177.613281 165.171875 -174.625 C 165.171875 -171.425781 165.0625 -168.703125 164.84375 -166.453125 C 164.632812 -164.210938 164.265625 -162.398438 163.734375 -161.015625 C 163.203125 -159.628906 162.5625 -158.613281 161.8125 -157.96875 C 161.070312 -157.332031 160.21875 -157.015625 159.25 -157.015625 C 157.65625 -157.015625 155.628906 -157.945312 153.171875 -159.8125 C 150.722656 -161.6875 147.550781 -163.769531 143.65625 -166.0625 C 139.757812 -168.351562 135.113281 -170.429688 129.71875 -172.296875 C 124.332031 -174.171875 117.90625 -175.109375 110.4375 -175.109375 C 102.21875 -175.109375 94.878906 -173.425781 88.421875 -170.0625 C 81.972656 -166.695312 76.476562 -161.894531 71.9375 -155.65625 C 67.40625 -149.414062 63.960938 -141.863281 61.609375 -133 C 59.265625 -124.144531 58.09375 -114.171875 58.09375 -103.078125 C 58.09375 -90.910156 59.347656 -80.367188 61.859375 -71.453125 C 64.367188 -62.546875 67.941406 -55.210938 72.578125 -49.453125 C 77.222656 -43.691406 82.828125 -39.394531 89.390625 -36.5625 C 95.953125 -33.738281 103.34375 -32.328125 111.5625 -32.328125 C 119.03125 -32.328125 125.484375 -33.207031 130.921875 -34.96875 C 136.367188 -36.726562 141.039062 -38.675781 144.9375 -40.8125 C 148.832031 -42.945312 152.03125 -44.867188 154.53125 -46.578125 C 157.039062 -48.285156 158.988281 -49.140625 160.375 -49.140625 C 161.445312 -49.140625 162.300781 -48.925781 162.9375 -48.5 C 163.582031 -48.070312 164.113281 -47.21875 164.53125 -45.9375 C 164.957031 -44.65625 165.273438 -42.867188 165.484375 -40.578125 C 165.703125 -38.285156 165.8125 -35.21875 165.8125 -31.375 Z M 165.8125 -31.375 "/></g></g><g transform="translate(1086.807885, 2031.012156)"><g><path d="M 156.53125 -5.4375 C 156.53125 -4.375 156.207031 -3.441406 155.5625 -2.640625 C 154.925781 -1.835938 153.863281 -1.171875 152.375 -0.640625 C 150.882812 -0.109375 148.832031 0.285156 146.21875 0.546875 C 143.601562 0.816406 140.375 0.953125 136.53125 0.953125 C 132.582031 0.953125 129.300781 0.816406 126.6875 0.546875 C 124.070312 0.285156 122.015625 -0.109375 120.515625 -0.640625 C 119.023438 -1.171875 117.957031 -1.835938 117.3125 -2.640625 C 116.675781 -3.441406 116.359375 -4.375 116.359375 -5.4375 L 116.359375 -86.90625 C 116.359375 -93.84375 115.851562 -99.285156 114.84375 -103.234375 C 113.832031 -107.179688 112.363281 -110.566406 110.4375 -113.390625 C 108.519531 -116.222656 106.039062 -118.410156 103 -119.953125 C 99.957031 -121.503906 96.410156 -122.28125 92.359375 -122.28125 C 87.234375 -122.28125 82.054688 -120.410156 76.828125 -116.671875 C 71.597656 -112.941406 66.15625 -107.503906 60.5 -100.359375 L 60.5 -5.4375 C 60.5 -4.375 60.175781 -3.441406 59.53125 -2.640625 C 58.894531 -1.835938 57.800781 -1.171875 56.25 -0.640625 C 54.707031 -0.109375 52.65625 0.285156 50.09375 0.546875 C 47.53125 0.816406 44.273438 0.953125 40.328125 0.953125 C 36.378906 0.953125 33.125 0.816406 30.5625 0.546875 C 28.007812 0.285156 25.957031 -0.109375 24.40625 -0.640625 C 22.863281 -1.171875 21.769531 -1.835938 21.125 -2.640625 C 20.488281 -3.441406 20.171875 -4.375 20.171875 -5.4375 L 20.171875 -215.921875 C 20.171875 -216.984375 20.488281 -217.941406 21.125 -218.796875 C 21.769531 -219.648438 22.863281 -220.367188 24.40625 -220.953125 C 25.957031 -221.546875 28.007812 -222 30.5625 -222.3125 C 33.125 -222.632812 36.378906 -222.796875 40.328125 -222.796875 C 44.273438 -222.796875 47.53125 -222.632812 50.09375 -222.3125 C 52.65625 -222 54.707031 -221.546875 56.25 -220.953125 C 57.800781 -220.367188 58.894531 -219.648438 59.53125 -218.796875 C 60.175781 -217.941406 60.5 -216.984375 60.5 -215.921875 L 60.5 -137.015625 C 67.4375 -143.835938 74.503906 -148.929688 81.703125 -152.296875 C 88.910156 -155.660156 96.410156 -157.34375 104.203125 -157.34375 C 113.910156 -157.34375 122.097656 -155.738281 128.765625 -152.53125 C 135.429688 -149.332031 140.816406 -144.957031 144.921875 -139.40625 C 149.035156 -133.863281 152 -127.382812 153.8125 -119.96875 C 155.625 -112.550781 156.53125 -103.5625 156.53125 -93 Z M 156.53125 -5.4375 "/></g></g><g transform="translate(1262.713177, 2031.012156)"><g><path d="M 141.8125 -4.96875 C 141.8125 -3.46875 141.273438 -2.289062 140.203125 -1.4375 C 139.140625 -0.582031 137.460938 0.0234375 135.171875 0.390625 C 132.878906 0.765625 129.488281 0.953125 125 0.953125 C 120.195312 0.953125 116.703125 0.765625 114.515625 0.390625 C 112.328125 0.0234375 110.78125 -0.582031 109.875 -1.4375 C 108.96875 -2.289062 108.515625 -3.46875 108.515625 -4.96875 L 108.515625 -16.328125 C 102.648438 -10.023438 95.953125 -5.113281 88.421875 -1.59375 C 80.898438 1.925781 72.550781 3.6875 63.375 3.6875 C 55.800781 3.6875 48.835938 2.695312 42.484375 0.71875 C 36.140625 -1.25 30.644531 -4.179688 26 -8.078125 C 21.363281 -11.972656 17.765625 -16.800781 15.203125 -22.5625 C 12.640625 -28.332031 11.359375 -35.054688 11.359375 -42.734375 C 11.359375 -51.054688 12.984375 -58.285156 16.234375 -64.421875 C 19.492188 -70.554688 24.351562 -75.625 30.8125 -79.625 C 37.269531 -83.625 45.300781 -86.582031 54.90625 -88.5 C 64.507812 -90.425781 75.65625 -91.390625 88.34375 -91.390625 L 102.28125 -91.390625 L 102.28125 -100.03125 C 102.28125 -104.519531 101.828125 -108.441406 100.921875 -111.796875 C 100.015625 -115.160156 98.519531 -117.960938 96.4375 -120.203125 C 94.351562 -122.441406 91.578125 -124.09375 88.109375 -125.15625 C 84.640625 -126.226562 80.347656 -126.765625 75.234375 -126.765625 C 68.503906 -126.765625 62.5 -126.015625 57.21875 -124.515625 C 51.9375 -123.023438 47.269531 -121.375 43.21875 -119.5625 C 39.164062 -117.75 35.773438 -116.09375 33.046875 -114.59375 C 30.328125 -113.101562 28.113281 -112.359375 26.40625 -112.359375 C 25.238281 -112.359375 24.195312 -112.726562 23.28125 -113.46875 C 22.375 -114.21875 21.628906 -115.285156 21.046875 -116.671875 C 20.460938 -118.066406 20.007812 -119.773438 19.6875 -121.796875 C 19.363281 -123.828125 19.203125 -126.070312 19.203125 -128.53125 C 19.203125 -131.832031 19.46875 -134.441406 20 -136.359375 C 20.539062 -138.285156 21.554688 -140.019531 23.046875 -141.5625 C 24.535156 -143.113281 27.148438 -144.820312 30.890625 -146.6875 C 34.628906 -148.5625 39.003906 -150.296875 44.015625 -151.890625 C 49.023438 -153.492188 54.492188 -154.800781 60.421875 -155.8125 C 66.347656 -156.832031 72.457031 -157.34375 78.75 -157.34375 C 89.945312 -157.34375 99.519531 -156.25 107.46875 -154.0625 C 115.425781 -151.875 121.960938 -148.507812 127.078125 -143.96875 C 132.203125 -139.4375 135.9375 -133.59375 138.28125 -126.4375 C 140.632812 -119.289062 141.8125 -110.8125 141.8125 -101 Z M 102.28125 -66.109375 L 86.90625 -66.109375 C 80.394531 -66.109375 74.84375 -65.625 70.25 -64.65625 C 65.664062 -63.695312 61.929688 -62.253906 59.046875 -60.328125 C 56.171875 -58.410156 54.066406 -56.09375 52.734375 -53.375 C 51.398438 -50.65625 50.734375 -47.535156 50.734375 -44.015625 C 50.734375 -38.035156 52.628906 -33.335938 56.421875 -29.921875 C 60.210938 -26.515625 65.46875 -24.8125 72.1875 -24.8125 C 77.84375 -24.8125 83.039062 -26.25 87.78125 -29.125 C 92.53125 -32.007812 97.363281 -36.226562 102.28125 -41.78125 Z M 102.28125 -66.109375 "/></g></g><g transform="translate(1424.53324, 2031.012156)"><g><path d="M 163.90625 -78.90625 C 163.90625 -66.207031 162.539062 -54.765625 159.8125 -44.578125 C 157.09375 -34.390625 153.117188 -25.71875 147.890625 -18.5625 C 142.660156 -11.414062 136.148438 -5.921875 128.359375 -2.078125 C 120.578125 1.765625 111.671875 3.6875 101.640625 3.6875 C 97.472656 3.6875 93.65625 3.285156 90.1875 2.484375 C 86.71875 1.679688 83.359375 0.453125 80.109375 -1.203125 C 76.859375 -2.859375 73.628906 -4.910156 70.421875 -7.359375 C 67.222656 -9.816406 63.914062 -12.695312 60.5 -16 L 60.5 51.21875 C 60.5 52.28125 60.175781 53.238281 59.53125 54.09375 C 58.894531 54.945312 57.800781 55.664062 56.25 56.25 C 54.707031 56.84375 52.65625 57.296875 50.09375 57.609375 C 47.53125 57.929688 44.273438 58.09375 40.328125 58.09375 C 36.378906 58.09375 33.125 57.929688 30.5625 57.609375 C 28.007812 57.296875 25.957031 56.84375 24.40625 56.25 C 22.863281 55.664062 21.769531 54.945312 21.125 54.09375 C 20.488281 53.238281 20.171875 52.28125 20.171875 51.21875 L 20.171875 -148.21875 C 20.171875 -149.28125 20.4375 -150.210938 20.96875 -151.015625 C 21.5 -151.816406 22.429688 -152.484375 23.765625 -153.015625 C 25.097656 -153.546875 26.859375 -153.941406 29.046875 -154.203125 C 31.234375 -154.472656 33.984375 -154.609375 37.296875 -154.609375 C 40.492188 -154.609375 43.1875 -154.472656 45.375 -154.203125 C 47.5625 -153.941406 49.320312 -153.546875 50.65625 -153.015625 C 51.988281 -152.484375 52.921875 -151.816406 53.453125 -151.015625 C 53.992188 -150.210938 54.265625 -149.28125 54.265625 -148.21875 L 54.265625 -131.40625 C 58.421875 -135.675781 62.5 -139.4375 66.5 -142.6875 C 70.5 -145.945312 74.578125 -148.671875 78.734375 -150.859375 C 82.898438 -153.046875 87.195312 -154.671875 91.625 -155.734375 C 96.0625 -156.804688 100.785156 -157.34375 105.796875 -157.34375 C 116.253906 -157.34375 125.164062 -155.285156 132.53125 -151.171875 C 139.894531 -147.066406 145.894531 -141.4375 150.53125 -134.28125 C 155.175781 -127.132812 158.566406 -118.8125 160.703125 -109.3125 C 162.835938 -99.820312 163.90625 -89.6875 163.90625 -78.90625 Z M 121.96875 -76.03125 C 121.96875 -82.113281 121.515625 -87.953125 120.609375 -93.546875 C 119.703125 -99.148438 118.15625 -104.140625 115.96875 -108.515625 C 113.78125 -112.890625 110.894531 -116.382812 107.3125 -119 C 103.738281 -121.613281 99.285156 -122.921875 93.953125 -122.921875 C 91.285156 -122.921875 88.644531 -122.519531 86.03125 -121.71875 C 83.414062 -120.914062 80.75 -119.609375 78.03125 -117.796875 C 75.3125 -115.984375 72.507812 -113.632812 69.625 -110.75 C 66.738281 -107.875 63.695312 -104.300781 60.5 -100.03125 L 60.5 -52.984375 C 66.15625 -45.828125 71.539062 -40.300781 76.65625 -36.40625 C 81.78125 -32.519531 87.117188 -30.578125 92.671875 -30.578125 C 97.898438 -30.578125 102.351562 -31.910156 106.03125 -34.578125 C 109.71875 -37.242188 112.734375 -40.734375 115.078125 -45.046875 C 117.429688 -49.367188 119.164062 -54.25 120.28125 -59.6875 C 121.40625 -65.132812 121.96875 -70.582031 121.96875 -76.03125 Z M 121.96875 -76.03125 "/></g></g></g><g fill="#ffffff" fill-opacity="1"><g transform="translate(1599.158056, 2031.012156)"><g><path d="M 104.671875 -19.53125 C 104.671875 -14.832031 104.378906 -11.226562 103.796875 -8.71875 C 103.210938 -6.21875 102.4375 -4.457031 101.46875 -3.4375 C 100.507812 -2.425781 99.097656 -1.519531 97.234375 -0.71875 C 95.367188 0.0820312 93.179688 0.773438 90.671875 1.359375 C 88.160156 1.941406 85.4375 2.394531 82.5 2.71875 C 79.570312 3.039062 76.613281 3.203125 73.625 3.203125 C 65.625 3.203125 58.6875 2.1875 52.8125 0.15625 C 46.945312 -1.863281 42.09375 -4.984375 38.25 -9.203125 C 34.40625 -13.421875 31.578125 -18.726562 29.765625 -25.125 C 27.953125 -31.53125 27.046875 -39.109375 27.046875 -47.859375 L 27.046875 -121 L 9.921875 -121 C 7.890625 -121 6.34375 -122.253906 5.28125 -124.765625 C 4.21875 -127.273438 3.6875 -131.460938 3.6875 -137.328125 C 3.6875 -140.421875 3.816406 -143.035156 4.078125 -145.171875 C 4.347656 -147.304688 4.75 -148.984375 5.28125 -150.203125 C 5.8125 -151.429688 6.476562 -152.3125 7.28125 -152.84375 C 8.082031 -153.382812 9.015625 -153.65625 10.078125 -153.65625 L 27.046875 -153.65625 L 27.046875 -185.5 C 27.046875 -186.570312 27.335938 -187.535156 27.921875 -188.390625 C 28.515625 -189.242188 29.582031 -189.960938 31.125 -190.546875 C 32.675781 -191.128906 34.757812 -191.554688 37.375 -191.828125 C 39.988281 -192.097656 43.21875 -192.234375 47.0625 -192.234375 C 51.007812 -192.234375 54.289062 -192.097656 56.90625 -191.828125 C 59.519531 -191.554688 61.570312 -191.128906 63.0625 -190.546875 C 64.550781 -189.960938 65.613281 -189.242188 66.25 -188.390625 C 66.894531 -187.535156 67.21875 -186.570312 67.21875 -185.5 L 67.21875 -153.65625 L 98.28125 -153.65625 C 99.34375 -153.65625 100.273438 -153.382812 101.078125 -152.84375 C 101.878906 -152.3125 102.546875 -151.429688 103.078125 -150.203125 C 103.609375 -148.984375 104.003906 -147.304688 104.265625 -145.171875 C 104.535156 -143.035156 104.671875 -140.421875 104.671875 -137.328125 C 104.671875 -131.460938 104.132812 -127.273438 103.0625 -124.765625 C 102 -122.253906 100.457031 -121 98.4375 -121 L 67.21875 -121 L 67.21875 -53.9375 C 67.21875 -46.144531 68.445312 -40.300781 70.90625 -36.40625 C 73.363281 -32.519531 77.738281 -30.578125 84.03125 -30.578125 C 86.164062 -30.578125 88.085938 -30.757812 89.796875 -31.125 C 91.503906 -31.5 93.023438 -31.925781 94.359375 -32.40625 C 95.691406 -32.882812 96.8125 -33.3125 97.71875 -33.6875 C 98.625 -34.0625 99.453125 -34.25 100.203125 -34.25 C 100.835938 -34.25 101.445312 -34.0625 102.03125 -33.6875 C 102.625 -33.3125 103.078125 -32.5625 103.390625 -31.4375 C 103.710938 -30.320312 104.003906 -28.804688 104.265625 -26.890625 C 104.535156 -24.972656 104.671875 -22.519531 104.671875 -19.53125 Z M 104.671875 -19.53125 "/></g></g></g><g fill="#ffffff" fill-opacity="1"><g transform="translate(1708.798736, 2031.012156)"><g><path d="M 152.046875 -80.984375 C 152.046875 -76.078125 150.953125 -72.445312 148.765625 -70.09375 C 146.578125 -67.75 143.566406 -66.578125 139.734375 -66.578125 L 52.8125 -66.578125 C 52.8125 -60.492188 53.53125 -54.972656 54.96875 -50.015625 C 56.414062 -45.054688 58.710938 -40.84375 61.859375 -37.375 C 65.003906 -33.90625 69.054688 -31.265625 74.015625 -29.453125 C 78.984375 -27.640625 84.9375 -26.734375 91.875 -26.734375 C 98.914062 -26.734375 105.101562 -27.238281 110.4375 -28.25 C 115.769531 -29.257812 120.382812 -30.378906 124.28125 -31.609375 C 128.175781 -32.835938 131.40625 -33.957031 133.96875 -34.96875 C 136.53125 -35.988281 138.609375 -36.5 140.203125 -36.5 C 141.171875 -36.5 141.972656 -36.3125 142.609375 -35.9375 C 143.253906 -35.5625 143.789062 -34.890625 144.21875 -33.921875 C 144.644531 -32.960938 144.9375 -31.601562 145.09375 -29.84375 C 145.25 -28.082031 145.328125 -25.867188 145.328125 -23.203125 C 145.328125 -20.859375 145.273438 -18.859375 145.171875 -17.203125 C 145.066406 -15.546875 144.90625 -14.128906 144.6875 -12.953125 C 144.476562 -11.785156 144.160156 -10.800781 143.734375 -10 C 143.304688 -9.195312 142.742188 -8.421875 142.046875 -7.671875 C 141.359375 -6.929688 139.46875 -5.921875 136.375 -4.640625 C 133.28125 -3.359375 129.332031 -2.101562 124.53125 -0.875 C 119.726562 0.34375 114.226562 1.40625 108.03125 2.3125 C 101.84375 3.226562 95.226562 3.6875 88.1875 3.6875 C 75.488281 3.6875 64.363281 2.085938 54.8125 -1.109375 C 45.269531 -4.316406 37.296875 -9.175781 30.890625 -15.6875 C 24.484375 -22.195312 19.707031 -30.410156 16.5625 -40.328125 C 13.414062 -50.253906 11.84375 -61.890625 11.84375 -75.234375 C 11.84375 -87.929688 13.492188 -99.375 16.796875 -109.5625 C 20.109375 -119.75 24.910156 -128.390625 31.203125 -135.484375 C 37.503906 -142.578125 45.160156 -147.992188 54.171875 -151.734375 C 63.191406 -155.472656 73.359375 -157.34375 84.671875 -157.34375 C 96.617188 -157.34375 106.832031 -155.578125 115.3125 -152.046875 C 123.800781 -148.523438 130.765625 -143.644531 136.203125 -137.40625 C 141.648438 -131.164062 145.648438 -123.773438 148.203125 -115.234375 C 150.765625 -106.703125 152.046875 -97.421875 152.046875 -87.390625 Z M 113 -92.515625 C 113.320312 -103.828125 111.054688 -112.707031 106.203125 -119.15625 C 101.347656 -125.613281 93.847656 -128.84375 83.703125 -128.84375 C 78.585938 -128.84375 74.132812 -127.878906 70.34375 -125.953125 C 66.550781 -124.035156 63.398438 -121.453125 60.890625 -118.203125 C 58.390625 -114.953125 56.472656 -111.109375 55.140625 -106.671875 C 53.804688 -102.242188 53.03125 -97.523438 52.8125 -92.515625 Z M 113 -92.515625 "/></g></g></g><g fill="#ffffff" fill-opacity="1"><g transform="translate(1873.819964, 2031.012156)"><g><path d="M 111.875 -134.921875 C 111.875 -131.085938 111.765625 -127.941406 111.546875 -125.484375 C 111.335938 -123.023438 111.019531 -121.101562 110.59375 -119.71875 C 110.164062 -118.332031 109.601562 -117.375 108.90625 -116.84375 C 108.21875 -116.3125 107.34375 -116.046875 106.28125 -116.046875 C 105.425781 -116.046875 104.460938 -116.226562 103.390625 -116.59375 C 102.328125 -116.96875 101.128906 -117.367188 99.796875 -117.796875 C 98.460938 -118.222656 96.992188 -118.625 95.390625 -119 C 93.796875 -119.375 92.035156 -119.5625 90.109375 -119.5625 C 87.867188 -119.5625 85.628906 -119.109375 83.390625 -118.203125 C 81.148438 -117.296875 78.828125 -115.878906 76.421875 -113.953125 C 74.023438 -112.035156 71.519531 -109.472656 68.90625 -106.265625 C 66.289062 -103.066406 63.488281 -99.125 60.5 -94.4375 L 60.5 -5.4375 C 60.5 -4.375 60.175781 -3.441406 59.53125 -2.640625 C 58.894531 -1.835938 57.800781 -1.171875 56.25 -0.640625 C 54.707031 -0.109375 52.65625 0.285156 50.09375 0.546875 C 47.53125 0.816406 44.273438 0.953125 40.328125 0.953125 C 36.378906 0.953125 33.125 0.816406 30.5625 0.546875 C 28.007812 0.285156 25.957031 -0.109375 24.40625 -0.640625 C 22.863281 -1.171875 21.769531 -1.835938 21.125 -2.640625 C 20.488281 -3.441406 20.171875 -4.375 20.171875 -5.4375 L 20.171875 -148.21875 C 20.171875 -149.28125 20.4375 -150.210938 20.96875 -151.015625 C 21.5 -151.816406 22.457031 -152.484375 23.84375 -153.015625 C 25.226562 -153.546875 27.015625 -153.941406 29.203125 -154.203125 C 31.390625 -154.472656 34.140625 -154.609375 37.453125 -154.609375 C 40.867188 -154.609375 43.695312 -154.472656 45.9375 -154.203125 C 48.175781 -153.941406 49.910156 -153.546875 51.140625 -153.015625 C 52.367188 -152.484375 53.25 -151.816406 53.78125 -151.015625 C 54.3125 -150.210938 54.578125 -149.28125 54.578125 -148.21875 L 54.578125 -130.453125 C 58.316406 -135.785156 61.835938 -140.1875 65.140625 -143.65625 C 68.453125 -147.125 71.597656 -149.867188 74.578125 -151.890625 C 77.566406 -153.921875 80.554688 -155.335938 83.546875 -156.140625 C 86.535156 -156.941406 89.523438 -157.34375 92.515625 -157.34375 C 93.898438 -157.34375 95.390625 -157.257812 96.984375 -157.09375 C 98.585938 -156.9375 100.242188 -156.671875 101.953125 -156.296875 C 103.660156 -155.921875 105.15625 -155.492188 106.4375 -155.015625 C 107.71875 -154.535156 108.648438 -154.023438 109.234375 -153.484375 C 109.828125 -152.953125 110.253906 -152.367188 110.515625 -151.734375 C 110.785156 -151.097656 111.023438 -150.21875 111.234375 -149.09375 C 111.453125 -147.96875 111.613281 -146.285156 111.71875 -144.046875 C 111.820312 -141.804688 111.875 -138.765625 111.875 -134.921875 Z M 111.875 -134.921875 "/></g></g></g></svg>